<svg width="23" height="19" viewBox="0 0 23 19" fill="none" xmlns="http://www.w3.org/2000/svg">
<path d="M3.20091 16.8402L3.05382 17.5756H3.05382L3.20091 16.8402ZM19.7991 16.8402L19.9462 17.5756L19.7991 16.8402ZM19.913 2.30278L20.0702 1.56943L19.913 2.30278ZM3.08696 2.30278L3.2441 3.03613L3.2441 3.03613L3.08696 2.30278ZM9.5 6.49999L9.88587 5.85687C9.65417 5.71785 9.36561 5.71421 9.13048 5.84734C8.89534 5.98046 8.75 6.22978 8.75 6.49999H9.5ZM9.5 12.5H8.75C8.75 12.7702 8.89534 13.0195 9.13048 13.1526C9.36561 13.2858 9.65417 13.2821 9.88587 13.1431L9.5 12.5ZM14.5 9.49998L14.8859 10.1431C15.1118 10.0076 15.25 9.76343 15.25 9.49998C15.25 9.23654 15.1118 8.99241 14.8859 8.85686L14.5 9.49998ZM0.75 4.26582V14.7654H2.25V4.26582H0.75ZM22.25 14.7654V4.26582H20.75V14.7654H22.25ZM3.05382 17.5756C8.6294 18.6907 14.3706 18.6907 19.9462 17.5756L19.652 16.1047C14.2706 17.181 8.72938 17.181 3.34799 16.1047L3.05382 17.5756ZM20.0702 1.56943C14.4209 0.358856 8.57915 0.358856 2.92981 1.56943L3.2441 3.03613C8.68626 1.86995 14.3137 1.86995 19.7559 3.03613L20.0702 1.56943ZM22.25 4.26582C22.25 2.96551 21.3416 1.84188 20.0702 1.56943L19.7559 3.03613C20.3357 3.16039 20.75 3.67281 20.75 4.26582H22.25ZM20.75 14.7654C20.75 15.4165 20.2904 15.977 19.652 16.1047L19.9462 17.5756C21.2858 17.3077 22.25 16.1315 22.25 14.7654H20.75ZM0.75 14.7654C0.75 16.1315 1.71425 17.3077 3.05382 17.5756L3.34799 16.1047C2.70956 15.977 2.25 15.4165 2.25 14.7654H0.75ZM2.25 4.26582C2.25 3.67281 2.66426 3.16038 3.2441 3.03613L2.92981 1.56943C1.65836 1.84188 0.75 2.96551 0.75 4.26582H2.25ZM8.75 6.49999V12.5H10.25V6.49999H8.75ZM9.88587 13.1431L14.8859 10.1431L14.1141 8.85686L9.11413 11.8569L9.88587 13.1431ZM14.8859 8.85686L9.88587 5.85687L9.11413 7.14311L14.1141 10.1431L14.8859 8.85686Z" fill="#9D46C6"/>
</svg>
