<svg id="github" width="18" height="21" viewBox="0 0 18 21" fill="none" xmlns="http://www.w3.org/2000/svg">
<path d="M6.72537 16.7154C7.12045 16.5909 7.33984 16.1698 7.2154 15.7747C7.09096 15.3796 6.66981 15.1602 6.27473 15.2846L6.72537 16.7154ZM1.6155 12.4746L0.890087 12.2841L0.50918 13.735L1.2346 13.9254L1.6155 12.4746ZM11.75 19.5V20.25H13.25V19.5H11.75ZM12 12.5L11.9199 11.7543C11.6323 11.7852 11.3881 11.9787 11.2923 12.2517C11.1966 12.5246 11.2663 12.8283 11.4715 13.0321L12 12.5ZM16.5 7.2775H17.25L17.25 7.27508L16.5 7.2775ZM15.3337 4.46875L14.6345 4.19723C14.5271 4.47398 14.5929 4.78809 14.8026 4.99832L15.3337 4.46875ZM15.2637 1.64512L15.9485 1.33929C15.8581 1.13691 15.6828 0.984872 15.4697 0.923981L15.2637 1.64512ZM12.2222 2.75375L12.033 3.4795C12.2363 3.5325 12.4526 3.49777 12.6291 3.38375L12.2222 2.75375ZM6.77791 2.75375L6.3711 3.38383C6.54759 3.49778 6.76379 3.53249 6.96708 3.4795L6.77791 2.75375ZM3.73641 1.64512L3.53019 0.924033C3.31715 0.98496 3.14195 1.13697 3.0516 1.33929L3.73641 1.64512ZM3.66641 4.46875L4.19745 4.99837C4.40712 4.78813 4.47303 4.474 4.36554 4.19723L3.66641 4.46875ZM2.50004 7.30025H3.25004L3.25003 7.29833L2.50004 7.30025ZM7.00005 12.5L7.52948 13.0312C7.73304 12.8284 7.80277 12.527 7.70902 12.2553C7.61527 11.9837 7.37452 11.7895 7.08917 11.7553L7.00005 12.5ZM6.50005 14.6H7.25005C7.25005 14.5817 7.24938 14.5633 7.24803 14.5451L6.50005 14.6ZM5.75005 19.5V20.25H7.25005V19.5H5.75005ZM6.27473 15.2846C5.43719 15.5485 4.91292 15.5169 4.57089 15.404C4.23109 15.2919 3.96821 15.0659 3.71369 14.7341C3.58464 14.5659 3.46534 14.3806 3.33912 14.1763C3.21956 13.9827 3.08253 13.753 2.94409 13.5488C2.67595 13.1534 2.27299 12.6472 1.6155 12.4746L1.2346 13.9254C1.32698 13.9497 1.46455 14.0396 1.7026 14.3906C1.81726 14.5597 1.92473 14.7408 2.06297 14.9646C2.19454 15.1776 2.34633 15.4161 2.52354 15.6471C2.88151 16.1138 3.37179 16.5878 4.1008 16.8284C4.82759 17.0683 5.68778 17.0422 6.72537 16.7154L6.27473 15.2846ZM13.25 14.5125C13.25 13.7293 13.316 12.7501 12.5286 11.9679L11.4715 13.0321C11.7323 13.2912 11.75 13.5457 11.75 14.5125H13.25ZM12.0802 13.2457C13.3417 13.1101 14.6726 12.806 15.6763 11.8734C16.7033 10.9193 17.25 9.4425 17.25 7.2775H15.75C15.75 9.20224 15.2678 10.2055 14.6553 10.7745C14.0196 11.3651 13.1005 11.6274 11.9199 11.7543L12.0802 13.2457ZM17.25 7.27508C17.246 6.02399 16.7481 4.8251 15.8647 3.93918L14.8026 4.99832C15.4068 5.60425 15.7473 6.42423 15.75 7.27992L17.25 7.27508ZM16.0328 4.74027C16.2442 4.19594 16.3456 3.6151 16.3311 3.03134L14.8316 3.06852C14.8411 3.45408 14.7742 3.83771 14.6345 4.19723L16.0328 4.74027ZM16.3311 3.03134C16.3166 2.44758 16.1866 1.87248 15.9485 1.33929L14.5788 1.95095C14.7361 2.30311 14.822 2.68295 14.8316 3.06852L16.3311 3.03134ZM15.2637 1.64512C15.4697 0.923981 15.469 0.92378 15.4683 0.923579C15.468 0.923511 15.4673 0.923309 15.4669 0.923173C15.4659 0.922902 15.4649 0.922628 15.4639 0.922352C15.4619 0.921801 15.4599 0.921241 15.4578 0.920674C15.4536 0.91954 15.4491 0.918376 15.4444 0.917192C15.435 0.914822 15.4247 0.912367 15.4133 0.909889C15.3907 0.90493 15.3643 0.899886 15.334 0.895232C15.2734 0.885914 15.1978 0.878226 15.107 0.875799C14.9248 0.870937 14.6843 0.887277 14.3822 0.951818C13.7792 1.08066 12.9348 1.40059 11.8152 2.12374L12.6291 3.38375C13.6323 2.73578 14.3086 2.5014 14.6956 2.41871C14.8886 2.37749 15.0104 2.37376 15.0669 2.37526C15.0953 2.37602 15.1081 2.37813 15.1061 2.37781C15.1051 2.37766 15.1004 2.37692 15.0923 2.37513C15.0882 2.37424 15.0833 2.37309 15.0775 2.37163C15.0746 2.3709 15.0715 2.3701 15.0682 2.3692C15.0665 2.36876 15.0648 2.36829 15.0631 2.3678C15.0622 2.36756 15.0613 2.36731 15.0604 2.36705C15.0599 2.36692 15.0592 2.36673 15.059 2.36666C15.0583 2.36647 15.0576 2.36627 15.2637 1.64512ZM12.4113 2.028C10.5024 1.53041 8.49771 1.53041 6.58874 2.028L6.96708 3.4795C8.62797 3.04658 10.3721 3.04658 12.033 3.4795L12.4113 2.028ZM7.18473 2.12367C6.06479 1.40058 5.22044 1.08067 4.61754 0.951825C4.31552 0.887283 4.07506 0.870935 3.89298 0.8758C3.80212 0.878227 3.72656 0.885919 3.66595 0.895245C3.63567 0.899903 3.60924 0.904952 3.58659 0.909917C3.57528 0.912399 3.56492 0.914857 3.55552 0.917231C3.55082 0.918418 3.54635 0.919583 3.54213 0.920719C3.54002 0.921288 3.53797 0.921848 3.53598 0.922401C3.53499 0.922677 3.53401 0.922952 3.53304 0.923224C3.53256 0.92336 3.53184 0.923562 3.5316 0.92363C3.53089 0.923832 3.53019 0.924033 3.73641 1.64512C3.94263 2.36622 3.94194 2.36641 3.94124 2.36661C3.94101 2.36668 3.94032 2.36687 3.93987 2.367C3.93896 2.36726 3.93806 2.36751 3.93718 2.36775C3.93541 2.36824 3.9337 2.36871 3.93204 2.36916C3.92871 2.37005 3.9256 2.37086 3.9227 2.37159C3.9169 2.37306 3.91196 2.37421 3.90788 2.3751C3.89972 2.37689 3.89508 2.37764 3.89405 2.3778C3.89193 2.37813 3.90467 2.37602 3.93304 2.37526C3.98943 2.37376 4.11116 2.37748 4.30406 2.4187C4.691 2.50139 5.36741 2.7358 6.3711 3.38383L7.18473 2.12367ZM3.0516 1.33929C2.81348 1.87248 2.68343 2.44758 2.66896 3.03134L4.1685 3.06852C4.17806 2.68295 4.26395 2.30311 4.42122 1.95095L3.0516 1.33929ZM2.66896 3.03134C2.65449 3.6151 2.75588 4.19594 2.96729 4.74027L4.36554 4.19723C4.22591 3.83771 4.15894 3.45408 4.1685 3.06852L2.66896 3.03134ZM3.13537 3.93913C2.69464 4.38105 2.34541 4.90557 2.1077 5.48265L3.49463 6.05397C3.65721 5.65931 3.89604 5.30059 4.19745 4.99837L3.13537 3.93913ZM2.1077 5.48265C1.86998 6.05974 1.74844 6.67804 1.75004 7.30217L3.25003 7.29833C3.24894 6.87149 3.33206 6.44863 3.49463 6.05397L2.1077 5.48265ZM1.75004 7.30025C1.75004 9.45248 2.29793 10.9165 3.32582 11.8644C4.32754 12.7881 5.65566 13.0945 6.91093 13.2447L7.08917 11.7553C5.90232 11.6133 4.98042 11.3498 4.34267 10.7617C3.73108 10.1977 3.25004 9.20802 3.25004 7.30025H1.75004ZM6.47062 11.9688C6.06592 12.3721 5.88126 12.8822 5.79834 13.3421C5.71532 13.8026 5.72381 14.2702 5.75206 14.6549L7.24803 14.5451C7.22379 14.215 7.22372 13.8902 7.27454 13.6082C7.32546 13.3258 7.41705 13.1433 7.52948 13.0312L6.47062 11.9688ZM5.75005 14.6V19.5H7.25005V14.6H5.75005ZM13.25 19.5V14.5125H11.75V19.5H13.25Z" fill="#9D46C6"/>
</svg>
